<?xml version="1.0" encoding="UTF-8" standalone="no"?>
<!DOCTYPE svg PUBLIC "-//W3C//DTD SVG 1.1//EN"
 "http://www.w3.org/Graphics/SVG/1.1/DTD/svg11.dtd">
<!-- Generated by graphviz version 2.44.1 (20200629.0846)
 -->
<!-- Title: dependencies Pages: 1 -->
<svg width="572pt" height="211pt"
 viewBox="0.00 0.00 572.00 211.00" xmlns="http://www.w3.org/2000/svg" xmlns:xlink="http://www.w3.org/1999/xlink">
<g id="graph0" class="graph" transform="scale(1 1) rotate(0) translate(4 207)">
<title>dependencies</title>
<polygon fill="white" stroke="transparent" points="-4,4 -4,-207 568,-207 568,4 -4,4"/>
<text text-anchor="start" x="261.01" y="-42.4" font-family="sans-serif" font-weight="bold" font-size="14.00">Legend</text>
<polygon fill="#ffffb3" stroke="transparent" points="48,-10 48,-30 68,-30 68,-10 48,-10"/>
<text text-anchor="start" x="71.63" y="-15.4" font-family="sans-serif" font-size="14.00"> &#160;Declarations</text>
<polygon fill="#8dd3c7" stroke="transparent" points="161,-10 161,-30 181,-30 181,-10 161,-10"/>
<text text-anchor="start" x="184.73" y="-15.4" font-family="sans-serif" font-size="14.00"> &#160;Module</text>
<polygon fill="#80b1d3" stroke="transparent" points="247,-10 247,-30 267,-30 267,-10 247,-10"/>
<text text-anchor="start" x="270.78" y="-15.4" font-family="sans-serif" font-size="14.00"> &#160;Bootstrap</text>
<polygon fill="#fdb462" stroke="transparent" points="344,-10 344,-30 364,-30 364,-10 344,-10"/>
<text text-anchor="start" x="367.67" y="-15.4" font-family="sans-serif" font-size="14.00"> &#160;Providers</text>
<polygon fill="#fb8072" stroke="transparent" points="440,-10 440,-30 460,-30 460,-10 440,-10"/>
<text text-anchor="start" x="463.73" y="-15.4" font-family="sans-serif" font-size="14.00"> &#160;Exports</text>
<g id="clust1" class="cluster">
<title>cluster_ShoppingModule</title>
<polygon fill="none" stroke="black" stroke-dasharray="1,5" points="8,-70 8,-195 556,-195 556,-70 8,-70"/>
</g>
<g id="clust4" class="cluster">
<title>cluster_ShoppingModule_imports</title>
<polygon fill="none" stroke="black" points="374,-78 374,-130 548,-130 548,-78 374,-78"/>
</g>
<g id="clust7" class="cluster">
<title>cluster_ShoppingModule_providers</title>
<polygon fill="none" stroke="black" points="196,-78 196,-130 366,-130 366,-78 196,-78"/>
</g>
<g id="clust2" class="cluster">
<title>cluster_ShoppingModule_declarations</title>
<polygon fill="none" stroke="black" points="16,-78 16,-130 188,-130 188,-78 16,-78"/>
</g>
<!-- ShoppingListComponent -->
<g id="node1" class="node">
<title>ShoppingListComponent</title>
<polygon fill="#ffffb3" stroke="black" points="180.28,-122 23.72,-122 23.72,-86 180.28,-86 180.28,-122"/>
<text text-anchor="middle" x="102" y="-99.8" font-family="Times,serif" font-size="14.00">ShoppingListComponent</text>
</g>
<!-- ShoppingModule -->
<g id="node2" class="node">
<title>ShoppingModule</title>
<polygon fill="#8dd3c7" stroke="black" points="337.72,-187 334.72,-191 313.72,-191 310.72,-187 224.28,-187 224.28,-151 337.72,-151 337.72,-187"/>
<text text-anchor="middle" x="281" y="-164.8" font-family="Times,serif" font-size="14.00">ShoppingModule</text>
</g>
<!-- ShoppingListComponent&#45;&gt;ShoppingModule -->
<g id="edge1" class="edge">
<title>ShoppingListComponent&#45;&gt;ShoppingModule</title>
<path fill="none" stroke="black" d="M102,-122.11C102,-141.34 102,-169 102,-169 102,-169 214.36,-169 214.36,-169"/>
<polygon fill="black" stroke="black" points="214.36,-172.5 224.36,-169 214.36,-165.5 214.36,-172.5"/>
</g>
<!-- ShoppingRoutingModule -->
<g id="node3" class="node">
<title>ShoppingRoutingModule</title>
<polygon fill="#8dd3c7" stroke="black" points="540.34,-122 537.34,-126 516.34,-126 513.34,-122 381.66,-122 381.66,-86 540.34,-86 540.34,-122"/>
<text text-anchor="middle" x="461" y="-99.8" font-family="Times,serif" font-size="14.00">ShoppingRoutingModule</text>
</g>
<!-- ShoppingRoutingModule&#45;&gt;ShoppingModule -->
<g id="edge2" class="edge">
<title>ShoppingRoutingModule&#45;&gt;ShoppingModule</title>
<path fill="none" stroke="black" d="M461,-122.11C461,-141.34 461,-169 461,-169 461,-169 347.95,-169 347.95,-169"/>
<polygon fill="black" stroke="black" points="347.95,-165.5 337.95,-169 347.95,-172.5 347.95,-165.5"/>
</g>
<!-- ShoppingService -->
<g id="node4" class="node">
<title>ShoppingService</title>
<ellipse fill="#fdb462" stroke="black" cx="281" cy="-104" rx="77.03" ry="18"/>
<text text-anchor="middle" x="281" y="-99.8" font-family="Times,serif" font-size="14.00">ShoppingService</text>
</g>
<!-- ShoppingService&#45;&gt;ShoppingModule -->
<g id="edge3" class="edge">
<title>ShoppingService&#45;&gt;ShoppingModule</title>
<path fill="none" stroke="black" d="M281,-122.11C281,-122.11 281,-140.99 281,-140.99"/>
<polygon fill="black" stroke="black" points="277.5,-140.99 281,-150.99 284.5,-140.99 277.5,-140.99"/>
</g>
</g>
</svg>
