<?xml version="1.0" encoding="UTF-8" standalone="no"?>
<!DOCTYPE svg PUBLIC "-//W3C//DTD SVG 1.1//EN"
 "http://www.w3.org/Graphics/SVG/1.1/DTD/svg11.dtd">
<!-- Generated by graphviz version 2.44.1 (20200629.0846)
 -->
<!-- Title: dependencies Pages: 1 -->
<svg width="1174pt" height="284pt"
 viewBox="0.00 0.00 1174.00 284.00" xmlns="http://www.w3.org/2000/svg" xmlns:xlink="http://www.w3.org/1999/xlink">
<g id="graph0" class="graph" transform="scale(1 1) rotate(0) translate(4 280)">
<title>dependencies</title>
<polygon fill="white" stroke="transparent" points="-4,4 -4,-280 1170,-280 1170,4 -4,4"/>
<text text-anchor="start" x="562.01" y="-42.4" font-family="sans-serif" font-weight="bold" font-size="14.00">Legend</text>
<polygon fill="#ffffb3" stroke="transparent" points="349,-10 349,-30 369,-30 369,-10 349,-10"/>
<text text-anchor="start" x="372.63" y="-15.4" font-family="sans-serif" font-size="14.00"> &#160;Declarations</text>
<polygon fill="#8dd3c7" stroke="transparent" points="462,-10 462,-30 482,-30 482,-10 462,-10"/>
<text text-anchor="start" x="485.73" y="-15.4" font-family="sans-serif" font-size="14.00"> &#160;Module</text>
<polygon fill="#80b1d3" stroke="transparent" points="548,-10 548,-30 568,-30 568,-10 548,-10"/>
<text text-anchor="start" x="571.78" y="-15.4" font-family="sans-serif" font-size="14.00"> &#160;Bootstrap</text>
<polygon fill="#fdb462" stroke="transparent" points="645,-10 645,-30 665,-30 665,-10 645,-10"/>
<text text-anchor="start" x="668.67" y="-15.4" font-family="sans-serif" font-size="14.00"> &#160;Providers</text>
<polygon fill="#fb8072" stroke="transparent" points="741,-10 741,-30 761,-30 761,-10 741,-10"/>
<text text-anchor="start" x="764.73" y="-15.4" font-family="sans-serif" font-size="14.00"> &#160;Exports</text>
<g id="clust1" class="cluster">
<title>cluster_AppModule</title>
<polygon fill="none" stroke="black" stroke-dasharray="1,5" points="8,-70 8,-268 602,-268 602,-70 8,-70"/>
</g>
<g id="clust2" class="cluster">
<title>cluster_AppModule_declarations</title>
<polygon fill="none" stroke="black" points="328,-78 328,-130 594,-130 594,-78 328,-78"/>
</g>
<g id="clust5" class="cluster">
<title>cluster_AppModule_imports</title>
<polygon fill="none" stroke="black" points="176,-78 176,-130 320,-130 320,-78 176,-78"/>
</g>
<g id="clust7" class="cluster">
<title>cluster_AppModule_bootstrap</title>
<polygon fill="none" stroke="black" points="261,-208 261,-260 385,-260 385,-208 261,-208"/>
</g>
<g id="clust8" class="cluster">
<title>cluster_AppModule_providers</title>
<polygon fill="none" stroke="black" points="16,-78 16,-130 168,-130 168,-78 16,-78"/>
</g>
<g id="clust15" class="cluster">
<title>cluster_ShoppingModule</title>
<polygon fill="none" stroke="black" stroke-dasharray="1,5" points="610,-70 610,-195 1158,-195 1158,-70 610,-70"/>
</g>
<g id="clust16" class="cluster">
<title>cluster_ShoppingModule_declarations</title>
<polygon fill="none" stroke="black" points="978,-78 978,-130 1150,-130 1150,-78 978,-78"/>
</g>
<g id="clust18" class="cluster">
<title>cluster_ShoppingModule_imports</title>
<polygon fill="none" stroke="black" points="796,-78 796,-130 970,-130 970,-78 796,-78"/>
</g>
<g id="clust21" class="cluster">
<title>cluster_ShoppingModule_providers</title>
<polygon fill="none" stroke="black" points="618,-78 618,-130 788,-130 788,-78 618,-78"/>
</g>
<!-- AppComponent -->
<g id="node1" class="node">
<title>AppComponent</title>
<polygon fill="#ffffb3" stroke="black" points="585.94,-122 480.06,-122 480.06,-86 585.94,-86 585.94,-122"/>
<text text-anchor="middle" x="533" y="-99.8" font-family="Times,serif" font-size="14.00">AppComponent</text>
</g>
<!-- AppModule -->
<g id="node3" class="node">
<title>AppModule</title>
<polygon fill="#8dd3c7" stroke="black" points="364.66,-187 361.66,-191 340.66,-191 337.66,-187 281.34,-187 281.34,-151 364.66,-151 364.66,-187"/>
<text text-anchor="middle" x="323" y="-164.8" font-family="Times,serif" font-size="14.00">AppModule</text>
</g>
<!-- AppComponent&#45;&gt;AppModule -->
<g id="edge1" class="edge">
<title>AppComponent&#45;&gt;AppModule</title>
<path fill="none" stroke="black" d="M533,-122.02C533,-139.37 533,-163 533,-163 533,-163 374.74,-163 374.74,-163"/>
<polygon fill="black" stroke="black" points="374.74,-159.5 364.74,-163 374.74,-166.5 374.74,-159.5"/>
</g>
<!-- CounterComponent -->
<g id="node2" class="node">
<title>CounterComponent</title>
<polygon fill="#ffffb3" stroke="black" points="462.44,-122 335.56,-122 335.56,-86 462.44,-86 462.44,-122"/>
<text text-anchor="middle" x="399" y="-99.8" font-family="Times,serif" font-size="14.00">CounterComponent</text>
</g>
<!-- CounterComponent&#45;&gt;AppModule -->
<g id="edge2" class="edge">
<title>CounterComponent&#45;&gt;AppModule</title>
<path fill="none" stroke="black" d="M350.31,-122.11C350.31,-122.11 350.31,-140.99 350.31,-140.99"/>
<polygon fill="black" stroke="black" points="346.81,-140.99 350.31,-150.99 353.81,-140.99 346.81,-140.99"/>
</g>
<!-- AppComponent  -->
<g id="node5" class="node">
<title>AppComponent </title>
<polygon fill="#80b1d3" stroke="black" points="377.44,-252 268.56,-252 268.56,-216 377.44,-216 377.44,-252"/>
<text text-anchor="middle" x="323" y="-229.8" font-family="Times,serif" font-size="14.00">AppComponent </text>
</g>
<!-- AppModule&#45;&gt;AppComponent  -->
<g id="edge4" class="edge">
<title>AppModule&#45;&gt;AppComponent </title>
<path fill="none" stroke="black" stroke-dasharray="1,5" d="M323,-187.11C323,-187.11 323,-205.99 323,-205.99"/>
<polygon fill="black" stroke="black" points="319.5,-205.99 323,-215.99 326.5,-205.99 319.5,-205.99"/>
</g>
<!-- AppRoutingModule -->
<g id="node4" class="node">
<title>AppRoutingModule</title>
<polygon fill="#8dd3c7" stroke="black" points="312.27,-122 309.27,-126 288.27,-126 285.27,-122 183.73,-122 183.73,-86 312.27,-86 312.27,-122"/>
<text text-anchor="middle" x="248" y="-99.8" font-family="Times,serif" font-size="14.00">AppRoutingModule</text>
</g>
<!-- AppRoutingModule&#45;&gt;AppModule -->
<g id="edge3" class="edge">
<title>AppRoutingModule&#45;&gt;AppModule</title>
<path fill="none" stroke="black" d="M296.78,-122.11C296.78,-122.11 296.78,-140.99 296.78,-140.99"/>
<polygon fill="black" stroke="black" points="293.28,-140.99 296.78,-150.99 300.28,-140.99 293.28,-140.99"/>
</g>
<!-- ApiInterceptor -->
<g id="node6" class="node">
<title>ApiInterceptor</title>
<ellipse fill="#fdb462" stroke="black" cx="92" cy="-104" rx="67.75" ry="18"/>
<text text-anchor="middle" x="92" y="-99.8" font-family="Times,serif" font-size="14.00">ApiInterceptor</text>
</g>
<!-- ApiInterceptor&#45;&gt;AppModule -->
<g id="edge5" class="edge">
<title>ApiInterceptor&#45;&gt;AppModule</title>
<path fill="none" stroke="black" d="M92,-122.11C92,-141.34 92,-169 92,-169 92,-169 271.17,-169 271.17,-169"/>
<polygon fill="black" stroke="black" points="271.17,-172.5 281.17,-169 271.17,-165.5 271.17,-172.5"/>
</g>
<!-- ShoppingListComponent -->
<g id="node7" class="node">
<title>ShoppingListComponent</title>
<polygon fill="#ffffb3" stroke="black" points="1142.28,-122 985.72,-122 985.72,-86 1142.28,-86 1142.28,-122"/>
<text text-anchor="middle" x="1064" y="-99.8" font-family="Times,serif" font-size="14.00">ShoppingListComponent</text>
</g>
<!-- ShoppingModule -->
<g id="node8" class="node">
<title>ShoppingModule</title>
<polygon fill="#8dd3c7" stroke="black" points="939.72,-187 936.72,-191 915.72,-191 912.72,-187 826.28,-187 826.28,-151 939.72,-151 939.72,-187"/>
<text text-anchor="middle" x="883" y="-164.8" font-family="Times,serif" font-size="14.00">ShoppingModule</text>
</g>
<!-- ShoppingListComponent&#45;&gt;ShoppingModule -->
<g id="edge6" class="edge">
<title>ShoppingListComponent&#45;&gt;ShoppingModule</title>
<path fill="none" stroke="black" d="M1064,-122.11C1064,-141.34 1064,-169 1064,-169 1064,-169 949.77,-169 949.77,-169"/>
<polygon fill="black" stroke="black" points="949.77,-165.5 939.77,-169 949.77,-172.5 949.77,-165.5"/>
</g>
<!-- ShoppingRoutingModule -->
<g id="node9" class="node">
<title>ShoppingRoutingModule</title>
<polygon fill="#8dd3c7" stroke="black" points="962.34,-122 959.34,-126 938.34,-126 935.34,-122 803.66,-122 803.66,-86 962.34,-86 962.34,-122"/>
<text text-anchor="middle" x="883" y="-99.8" font-family="Times,serif" font-size="14.00">ShoppingRoutingModule</text>
</g>
<!-- ShoppingRoutingModule&#45;&gt;ShoppingModule -->
<g id="edge7" class="edge">
<title>ShoppingRoutingModule&#45;&gt;ShoppingModule</title>
<path fill="none" stroke="black" d="M883,-122.11C883,-122.11 883,-140.99 883,-140.99"/>
<polygon fill="black" stroke="black" points="879.5,-140.99 883,-150.99 886.5,-140.99 879.5,-140.99"/>
</g>
<!-- ShoppingService -->
<g id="node10" class="node">
<title>ShoppingService</title>
<ellipse fill="#fdb462" stroke="black" cx="703" cy="-104" rx="77.03" ry="18"/>
<text text-anchor="middle" x="703" y="-99.8" font-family="Times,serif" font-size="14.00">ShoppingService</text>
</g>
<!-- ShoppingService&#45;&gt;ShoppingModule -->
<g id="edge8" class="edge">
<title>ShoppingService&#45;&gt;ShoppingModule</title>
<path fill="none" stroke="black" d="M703,-122.28C703,-143.32 703,-175 703,-175 703,-175 816.05,-175 816.05,-175"/>
<polygon fill="black" stroke="black" points="816.05,-178.5 826.05,-175 816.05,-171.5 816.05,-178.5"/>
</g>
</g>
</svg>
